# Blender 5.1.0
# www.blender.org
mtllib grass.mtl
o __44_62_85_to_68_255_110.001
v 7.502729 0.499999 -1.032509
v 7.502729 -0.500001 -1.032509
v 7.502729 0.499999 -0.032509
v 7.502729 -0.500001 -0.032509
v 7.502729 -0.500001 -1.032509
v 7.502729 -0.500001 -0.032509
v 7.502729 0.499999 -1.032509
v 6.502729 -0.500000 -1.032508
v 6.502729 0.500000 -1.032508
v 5.502729 -0.500000 -1.032508
v 6.502729 -0.500000 -0.032508
v 5.502729 -0.500000 -0.032508
v 6.502729 0.500000 -0.032508
v 7.502729 0.499999 -0.032509
v 5.502729 0.500000 -0.032508
v 4.502729 0.500000 -0.032508
v 4.502729 -0.500000 -0.032508
v 3.502729 0.500000 -0.032508
v 3.502729 -0.500000 -0.032508
v 2.502729 0.500000 -0.032508
v 2.502729 -0.500000 -0.032508
v 1.502729 0.500000 -0.032508
v 1.502729 -0.500000 -0.032508
v 0.502729 0.500000 -0.032508
v 0.502729 -0.500000 -0.032508
v -0.497271 0.500000 -0.032508
v -0.497271 -0.500000 -0.032508
v -1.497271 0.500000 -0.032508
v -1.497271 -0.500000 -0.032508
v -2.497271 0.500000 -0.032508
v -2.497271 -0.500000 -0.032508
v -3.497271 0.500000 -0.032508
v -3.497271 -0.500000 -0.032508
v -4.497271 0.500000 -0.032508
v -4.497271 -0.500000 -0.032508
v -5.497271 0.500000 -0.032508
v -5.497271 -0.500000 -0.032508
v -6.497271 0.500000 -0.032508
v -6.497271 -0.500000 -0.032508
v -7.497271 0.500001 -0.032507
v -7.497271 -0.499999 -0.032507
v -7.497271 0.500001 -1.032507
v -7.497271 -0.499999 -1.032507
v -6.497271 0.500000 -1.032507
v -6.497271 -0.500000 -1.032507
v -5.497271 0.500000 -1.032508
v -5.497271 -0.500000 -1.032508
v -4.497271 0.500000 -1.032508
v -4.497271 -0.500000 -1.032508
v -3.497271 0.500000 -1.032508
v -3.497271 -0.500000 -1.032508
v -2.497271 0.500000 -1.032508
v -2.497271 -0.500000 -1.032508
v -1.497271 0.500000 -1.032508
v -1.497271 -0.500000 -1.032508
v -0.497271 0.500000 -1.032508
v -0.497271 -0.500000 -1.032508
v 0.502729 0.500000 -1.032508
v 0.502729 -0.500000 -1.032508
v 1.502729 0.500000 -1.032508
v 1.502729 -0.500000 -1.032508
v 2.502729 0.500000 -1.032508
v 2.502729 -0.500000 -1.032508
v 3.502729 0.500000 -1.032508
v 3.502729 -0.500000 -1.032508
v 4.502729 0.500000 -1.032508
v 4.502729 -0.500000 -1.032508
v 5.502729 0.500000 -1.032508
v 7.502729 0.500003 -1.032509
v 7.502729 0.500003 -0.032509
v 6.502729 0.500004 -1.032508
v 6.502729 0.500004 -0.032508
v 5.502729 0.500004 -1.032508
v 5.502729 0.500004 -0.032508
v 4.502729 0.500004 -1.032508
v 4.502729 0.500004 -0.032508
v 3.502729 0.500004 -1.032508
v 3.502729 0.500004 -0.032508
v 2.502729 0.500004 -1.032508
v 2.502729 0.500004 -0.032508
v 1.502729 0.500004 -1.032508
v 1.502729 0.500004 -0.032508
v 0.502729 0.500004 -1.032508
v 0.502729 0.500004 -0.032508
v -0.497271 0.500004 -1.032508
v -0.497271 0.500004 -0.032508
v -1.497271 0.500004 -1.032508
v -1.497271 0.500004 -0.032508
v -2.497271 0.500004 -1.032508
v -2.497271 0.500004 -0.032508
v -3.497271 0.500004 -1.032508
v -3.497271 0.500004 -0.032508
v -4.497271 0.500004 -1.032508
v -4.497271 0.500004 -0.032508
v -5.497271 0.500004 -1.032508
v -5.497271 0.500004 -0.032508
v -6.497271 0.500004 -1.032507
v -6.497271 0.500004 -0.032508
v -7.497271 0.500005 -1.032507
v -7.497271 0.500005 -0.032507
vn 1.0000 -0.0000 -0.0000
vn -0.0000 -1.0000 -0.0000
vn -0.0000 -0.0000 -1.0000
vn -0.0000 -0.0000 1.0000
vn -1.0000 -0.0000 -0.0000
vn -0.0000 1.0000 -0.0000
vt 0.069336 0.983398
vt 0.069336 0.999023
vt 0.053711 0.999023
vt 0.053711 0.983398
vt 0.036133 0.999023
vt 0.051758 0.999023
vt 0.051758 0.983398
vt 0.036133 0.983398
vt 0.000977 0.999023
vt 0.000977 0.983398
vt 0.016602 0.983398
vt 0.016602 0.999023
s 1
usemtl Grass_Block
f 1/1/1 3/2/1 4/3/1 2/4/1
f 8/4/2 5/1/2 6/2/2 11/3/2
f 9/5/3 7/6/3 5/7/3 8/8/3
f 68/8/3 9/5/3 8/6/3 10/7/3
f 10/4/2 8/1/2 11/2/2 12/3/2
f 13/9/4 11/10/4 6/11/4 14/12/4
f 15/10/4 12/11/4 11/12/4 13/9/4
f 16/12/4 17/9/4 12/10/4 15/11/4
f 18/12/4 19/9/4 17/10/4 16/11/4
f 20/12/4 21/9/4 19/10/4 18/11/4
f 22/11/4 23/12/4 21/9/4 20/10/4
f 24/10/4 25/11/4 23/12/4 22/9/4
f 26/10/4 27/11/4 25/12/4 24/9/4
f 28/11/4 29/12/4 27/9/4 26/10/4
f 30/10/4 31/11/4 29/12/4 28/9/4
f 32/11/4 33/12/4 31/9/4 30/10/4
f 34/11/4 35/12/4 33/9/4 32/10/4
f 36/10/4 37/11/4 35/12/4 34/9/4
f 38/10/4 39/11/4 37/12/4 36/9/4
f 40/9/4 41/10/4 39/11/4 38/12/4
f 42/4/5 43/1/5 41/2/5 40/3/5
f 42/5/3 44/6/3 45/7/3 43/8/3
f 44/8/3 46/5/3 47/6/3 45/7/3
f 46/8/3 48/5/3 49/6/3 47/7/3
f 48/7/3 50/8/3 51/5/3 49/6/3
f 50/7/3 52/8/3 53/5/3 51/6/3
f 52/8/3 54/5/3 55/6/3 53/7/3
f 54/7/3 56/8/3 57/5/3 55/6/3
f 56/8/3 58/5/3 59/6/3 57/7/3
f 58/8/3 60/5/3 61/6/3 59/7/3
f 60/7/3 62/8/3 63/5/3 61/6/3
f 62/6/3 64/7/3 65/8/3 63/5/3
f 64/6/3 66/7/3 67/8/3 65/5/3
f 66/6/3 68/7/3 10/8/3 67/5/3
f 65/4/2 67/1/2 17/2/2 19/3/2
f 67/4/2 10/1/2 12/2/2 17/3/2
f 63/4/2 65/1/2 19/2/2 21/3/2
f 61/4/2 63/1/2 21/2/2 23/3/2
f 59/4/2 61/1/2 23/2/2 25/3/2
f 57/4/2 59/1/2 25/2/2 27/3/2
f 55/4/2 57/1/2 27/2/2 29/3/2
f 53/4/2 55/1/2 29/2/2 31/3/2
f 51/4/2 53/1/2 31/2/2 33/3/2
f 49/4/2 51/1/2 33/2/2 35/3/2
f 47/4/2 49/1/2 35/2/2 37/3/2
f 45/4/2 47/1/2 37/2/2 39/3/2
f 43/4/2 45/1/2 39/2/2 41/3/2
f 71/1/6 72/2/6 70/3/6 69/4/6
f 73/1/6 74/2/6 72/3/6 71/4/6
f 75/1/6 76/2/6 74/3/6 73/4/6
f 77/1/6 78/2/6 76/3/6 75/4/6
f 79/1/6 80/2/6 78/3/6 77/4/6
f 81/1/6 82/2/6 80/3/6 79/4/6
f 83/1/6 84/2/6 82/3/6 81/4/6
f 85/1/6 86/2/6 84/3/6 83/4/6
f 87/1/6 88/2/6 86/3/6 85/4/6
f 89/1/6 90/2/6 88/3/6 87/4/6
f 91/1/6 92/2/6 90/3/6 89/4/6
f 93/1/6 94/2/6 92/3/6 91/4/6
f 95/1/6 96/2/6 94/3/6 93/4/6
f 97/1/6 98/2/6 96/3/6 95/4/6
f 99/1/6 100/2/6 98/3/6 97/4/6
